<svg width="14" height="9" viewBox="0 0 14 9" fill="none" xmlns="http://www.w3.org/2000/svg">
<path d="M7.44217 8.19217L13.6922 1.94217C13.7502 1.8841 13.7963 1.81516 13.8277 1.73929C13.8592 1.66342 13.8753 1.5821 13.8753 1.49998C13.8753 1.41786 13.8592 1.33654 13.8277 1.26067C13.7963 1.1848 13.7502 1.11586 13.6922 1.05779C13.6341 0.999725 13.5652 0.953662 13.4893 0.922236C13.4134 0.890809 13.3321 0.874634 13.25 0.874634C13.1679 0.874634 13.0865 0.890809 13.0107 0.922236C12.9348 0.953662 12.8659 0.999725 12.8078 1.05779L6.99998 6.86639L1.19217 1.05779C1.07489 0.940518 0.915834 0.874634 0.749981 0.874634C0.584129 0.874634 0.425069 0.940518 0.307794 1.05779C0.190518 1.17507 0.124634 1.33413 0.124634 1.49998C0.124634 1.66583 0.190518 1.82489 0.307794 1.94217L6.55779 8.19217C6.61584 8.25028 6.68477 8.29638 6.76064 8.32783C6.83652 8.35928 6.91785 8.37547 6.99998 8.37547C7.08212 8.37547 7.16344 8.35928 7.23932 8.32783C7.31519 8.29638 7.38412 8.25028 7.44217 8.19217Z" fill="#101010"/>
</svg>
