<svg width="24" height="23" viewBox="0 0 24 23" fill="none" xmlns="http://www.w3.org/2000/svg">
<path d="M23.6113 11.5001C23.6113 5.14878 18.4626 5.53131e-05 12.1113 5.53131e-05C5.76005 5.53131e-05 0.611328 5.14878 0.611328 11.5001C0.611328 17.24 4.81671 21.9976 10.3145 22.8604V14.8243H7.39453V11.5001H10.3145V8.96646C10.3145 6.08427 12.0313 4.49224 14.6582 4.49224C15.9164 4.49224 17.2324 4.71685 17.2324 4.71685V7.54693H15.7823C14.3537 7.54693 13.9082 8.4334 13.9082 9.34284V11.5001H17.0977L16.5878 14.8243H13.9082V22.8604C19.4059 21.9976 23.6113 17.24 23.6113 11.5001Z" fill="white"/>
</svg>
