<svg width="208" height="109" viewBox="0 0 208 109" fill="none" xmlns="http://www.w3.org/2000/svg">
<path d="M45.8042 95.0318L55.4232 34.0652L24.1235 46.4835L12.5191 45.5651L0 22.2592L5.80032 20.4184L19.6952 31.3022C19.6952 31.3022 75.8805 6.00626 83.9712 2.48167C92.062 -1.04292 101.376 -1.65905 108.095 6.31624L75.4232 25.1753L54.0474 92.2764L45.8042 95.0356V95.0318Z" fill="white"/>
<path d="M54.0474 11.6777L39.3903 19.19L21.9856 6.92472L29.3141 2.63475L54.0474 11.6777Z" fill="white"/>
<path d="M76.5589 105.95H73.5749L72.988 107.335H71.8447L74.5276 101.342H75.6176L78.3119 107.335H77.1534L76.5551 105.95H76.5589ZM76.193 105.077L75.0688 102.46L73.9522 105.077H76.193Z" fill="white"/>
<path d="M82.142 107.098C81.7685 106.899 81.4751 106.62 81.2654 106.264C81.0558 105.908 80.9491 105.502 80.9491 105.051C80.9491 104.599 81.0558 104.197 81.2654 103.845C81.4751 103.493 81.7685 103.214 82.1382 103.015C82.5116 102.816 82.9347 102.716 83.411 102.716C83.8607 102.716 84.2533 102.808 84.5924 102.992C84.9316 103.175 85.1831 103.436 85.3546 103.78L84.5353 104.258C84.4057 104.048 84.2418 103.891 84.0437 103.784C83.8493 103.677 83.6321 103.627 83.3996 103.627C83.0033 103.627 82.6717 103.757 82.4126 104.017C82.1496 104.278 82.02 104.622 82.02 105.058C82.02 105.495 82.1496 105.839 82.4087 106.099C82.6679 106.359 82.9994 106.49 83.4034 106.49C83.6359 106.49 83.8493 106.436 84.0475 106.333C84.2418 106.225 84.4057 106.069 84.5391 105.858L85.3584 106.336C85.1831 106.677 84.924 106.941 84.5886 107.129C84.2495 107.312 83.8607 107.408 83.4148 107.408C82.9423 107.408 82.5193 107.309 82.1458 107.11L82.142 107.098Z" fill="white"/>
<path d="M87.0086 107.098C86.6389 106.899 86.3493 106.62 86.1435 106.264C85.9377 105.908 85.831 105.502 85.831 105.051C85.831 104.599 85.9339 104.197 86.1435 103.845C86.3493 103.493 86.6389 103.214 87.0086 103.015C87.3783 102.816 87.7937 102.716 88.251 102.716C88.7083 102.716 89.1351 102.816 89.5048 103.015C89.8745 103.214 90.1641 103.493 90.3699 103.845C90.5757 104.197 90.6824 104.603 90.6824 105.051C90.6824 105.498 90.5795 105.904 90.3699 106.264C90.1641 106.62 89.8745 106.899 89.5048 107.098C89.1351 107.297 88.7159 107.397 88.251 107.397C87.786 107.397 87.3745 107.297 87.0086 107.098ZM89.2228 106.088C89.4781 105.824 89.6077 105.479 89.6077 105.051C89.6077 104.622 89.4781 104.278 89.2228 104.014C88.9674 103.749 88.6435 103.619 88.251 103.619C87.8585 103.619 87.5345 103.749 87.283 104.014C87.0315 104.278 86.9019 104.622 86.9019 105.051C86.9019 105.479 87.0277 105.824 87.283 106.088C87.5345 106.352 87.8585 106.482 88.251 106.482C88.6435 106.482 88.9674 106.352 89.2228 106.088Z" fill="white"/>
<path d="M91.7037 100.986H92.7708V107.339H91.7037V100.986Z" fill="white"/>
<path d="M94.9697 107.098C94.6001 106.899 94.3104 106.62 94.1047 106.264C93.8989 105.908 93.7922 105.502 93.7922 105.051C93.7922 104.599 93.8951 104.197 94.1047 103.845C94.3104 103.493 94.6001 103.214 94.9697 103.015C95.3394 102.816 95.7548 102.716 96.2121 102.716C96.6694 102.716 97.0963 102.816 97.4659 103.015C97.8356 103.214 98.1252 103.493 98.331 103.845C98.5368 104.197 98.6435 104.603 98.6435 105.051C98.6435 105.498 98.5406 105.904 98.331 106.264C98.1252 106.62 97.8356 106.899 97.4659 107.098C97.0963 107.297 96.6771 107.397 96.2121 107.397C95.7472 107.397 95.3356 107.297 94.9697 107.098ZM97.1839 106.088C97.4393 105.824 97.5688 105.479 97.5688 105.051C97.5688 104.622 97.4393 104.278 97.1839 104.014C96.9286 103.749 96.6047 103.619 96.2121 103.619C95.8196 103.619 95.4957 103.749 95.2441 104.014C94.9926 104.278 94.863 104.622 94.863 105.051C94.863 105.479 94.9888 105.824 95.2441 106.088C95.4957 106.352 95.8196 106.482 96.2121 106.482C96.6047 106.482 96.9286 106.352 97.1839 106.088Z" fill="white"/>
<path d="M102.298 102.716V103.734C102.207 103.719 102.123 103.707 102.051 103.707C101.635 103.707 101.311 103.83 101.079 104.071C100.846 104.312 100.728 104.664 100.728 105.12V107.335H99.6611V102.766H100.675V103.436C100.983 102.957 101.521 102.716 102.294 102.716H102.298Z" fill="white"/>
<path d="M104.421 102.529V102.804H105.675V103.661H104.455V107.343H103.392V103.661H102.641V102.804H103.392V102.513C103.392 102.024 103.533 101.637 103.819 101.354C104.105 101.071 104.505 100.929 105.019 100.929C105.427 100.929 105.751 101.013 105.983 101.178L105.686 101.981C105.503 101.855 105.309 101.794 105.099 101.794C104.65 101.794 104.425 102.039 104.425 102.529H104.421Z" fill="white"/>
<path d="M110.797 107.335H109.783V106.754C109.612 106.96 109.398 107.117 109.143 107.228C108.887 107.339 108.613 107.397 108.316 107.397C107.706 107.397 107.23 107.228 106.879 106.888C106.528 106.547 106.353 106.046 106.353 105.376V102.766H107.42V105.23C107.42 105.64 107.512 105.95 107.698 106.149C107.881 106.352 108.144 106.451 108.487 106.451C108.868 106.451 109.169 106.333 109.394 106.095C109.619 105.858 109.73 105.518 109.73 105.074V102.762H110.797V107.335Z" fill="white"/>
<path d="M112.195 100.986H113.262V107.339H112.195V100.986Z" fill="white"/>
<path d="M121.273 105.395H117.702C117.763 105.732 117.927 106 118.194 106.195C118.457 106.39 118.785 106.49 119.177 106.49C119.676 106.49 120.088 106.325 120.412 105.992L120.984 106.65C120.778 106.895 120.519 107.083 120.206 107.205C119.894 107.331 119.543 107.393 119.15 107.393C118.651 107.393 118.209 107.293 117.828 107.094C117.447 106.895 117.153 106.616 116.944 106.26C116.734 105.904 116.631 105.498 116.631 105.047C116.631 104.595 116.73 104.201 116.932 103.845C117.134 103.489 117.413 103.21 117.771 103.011C118.129 102.812 118.533 102.712 118.983 102.712C119.432 102.712 119.821 102.812 120.172 103.007C120.522 103.202 120.793 103.482 120.991 103.837C121.186 104.193 121.285 104.607 121.285 105.074C121.285 105.146 121.281 105.253 121.269 105.391L121.273 105.395ZM118.121 103.876C117.885 104.079 117.74 104.346 117.691 104.683H120.275C120.229 104.354 120.088 104.082 119.855 103.88C119.623 103.673 119.333 103.573 118.987 103.573C118.64 103.573 118.358 103.673 118.121 103.876Z" fill="white"/>
<path d="M125.08 107.339L123.914 105.755L122.737 107.339H121.559L123.331 105.02L121.635 102.77H122.82L123.937 104.266L125.054 102.77H126.205L124.501 105.005L126.281 107.343H125.08V107.339Z" fill="white"/>
<path d="M130.782 103.007C131.132 103.202 131.407 103.474 131.605 103.83C131.803 104.182 131.902 104.591 131.902 105.054C131.902 105.518 131.803 105.927 131.605 106.283C131.407 106.639 131.132 106.914 130.782 107.11C130.431 107.305 130.035 107.4 129.593 107.4C128.979 107.4 128.495 107.194 128.137 106.784V109H127.07V102.77H128.083V103.371C128.259 103.152 128.476 102.992 128.735 102.885C128.994 102.777 129.28 102.724 129.593 102.724C130.035 102.724 130.431 102.82 130.782 103.015V103.007ZM130.439 106.088C130.69 105.824 130.82 105.479 130.82 105.051C130.82 104.622 130.694 104.278 130.439 104.014C130.187 103.749 129.863 103.619 129.471 103.619C129.215 103.619 128.987 103.677 128.781 103.795C128.575 103.914 128.415 104.079 128.297 104.297C128.179 104.515 128.118 104.764 128.118 105.051C128.118 105.338 128.179 105.586 128.297 105.805C128.415 106.023 128.579 106.187 128.781 106.306C128.987 106.424 129.215 106.482 129.471 106.482C129.863 106.482 130.187 106.352 130.439 106.088Z" fill="white"/>
<path d="M137.176 105.395H133.606C133.666 105.732 133.83 106 134.097 106.195C134.36 106.39 134.688 106.49 135.08 106.49C135.58 106.49 135.991 106.325 136.315 105.992L136.887 106.65C136.681 106.895 136.422 107.083 136.109 107.205C135.797 107.331 135.446 107.393 135.054 107.393C134.554 107.393 134.112 107.293 133.731 107.094C133.35 106.895 133.057 106.616 132.847 106.26C132.638 105.904 132.535 105.498 132.535 105.047C132.535 104.595 132.634 104.201 132.836 103.845C133.038 103.489 133.316 103.21 133.674 103.011C134.032 102.812 134.436 102.712 134.886 102.712C135.336 102.712 135.724 102.812 136.075 103.007C136.426 103.202 136.696 103.482 136.894 103.837C137.089 104.193 137.188 104.607 137.188 105.074C137.188 105.146 137.184 105.253 137.173 105.391L137.176 105.395ZM134.029 103.876C133.792 104.079 133.647 104.346 133.598 104.683H136.182C136.136 104.354 135.995 104.082 135.763 103.88C135.53 103.673 135.24 103.573 134.894 103.573C134.547 103.573 134.265 103.673 134.029 103.876Z" fill="white"/>
<path d="M140.85 102.716V103.734C140.759 103.719 140.675 103.707 140.602 103.707C140.187 103.707 139.863 103.83 139.631 104.071C139.398 104.312 139.28 104.664 139.28 105.12V107.335H138.213V102.766H139.227V103.436C139.535 102.957 140.073 102.716 140.846 102.716H140.85Z" fill="white"/>
<path d="M141.803 101.828C141.673 101.706 141.609 101.553 141.609 101.369C141.609 101.185 141.673 101.032 141.803 100.91C141.933 100.787 142.096 100.726 142.291 100.726C142.485 100.726 142.645 100.784 142.775 100.902C142.904 101.021 142.969 101.166 142.969 101.342C142.969 101.53 142.904 101.691 142.779 101.817C142.653 101.943 142.489 102.008 142.287 102.008C142.085 102.008 141.933 101.947 141.799 101.825L141.803 101.828ZM141.753 102.766H142.82V107.335H141.753V102.766Z" fill="white"/>
<path d="M148.48 105.395H144.909C144.97 105.732 145.134 106 145.401 106.195C145.663 106.39 145.991 106.49 146.384 106.49C146.883 106.49 147.295 106.325 147.619 105.992L148.19 106.65C147.984 106.895 147.725 107.083 147.413 107.205C147.1 107.331 146.75 107.393 146.357 107.393C145.858 107.393 145.416 107.293 145.035 107.094C144.654 106.895 144.36 106.616 144.151 106.26C143.941 105.904 143.838 105.498 143.838 105.047C143.838 104.595 143.937 104.201 144.139 103.845C144.341 103.489 144.619 103.21 144.977 103.011C145.336 102.812 145.74 102.712 146.189 102.712C146.639 102.712 147.028 102.812 147.378 103.007C147.729 103.202 148 103.482 148.198 103.837C148.392 104.193 148.491 104.607 148.491 105.074C148.491 105.146 148.487 105.253 148.476 105.391L148.48 105.395ZM145.328 103.876C145.092 104.079 144.947 104.346 144.897 104.683H147.481C147.436 104.354 147.295 104.082 147.062 103.88C146.83 103.673 146.54 103.573 146.193 103.573C145.846 103.573 145.564 103.673 145.328 103.876Z" fill="white"/>
<path d="M153.484 103.221C153.83 103.558 154.002 104.056 154.002 104.718V107.335H152.935V104.852C152.935 104.454 152.84 104.151 152.653 103.948C152.466 103.746 152.199 103.646 151.853 103.646C151.46 103.646 151.151 103.765 150.923 104.002C150.694 104.239 150.583 104.58 150.583 105.024V107.335H149.516V102.766H150.53V103.355C150.705 103.145 150.926 102.984 151.197 102.877C151.464 102.77 151.765 102.716 152.1 102.716C152.676 102.716 153.133 102.885 153.48 103.221H153.484Z" fill="white"/>
<path d="M156.216 107.098C155.843 106.899 155.549 106.62 155.34 106.264C155.13 105.908 155.023 105.502 155.023 105.051C155.023 104.599 155.13 104.197 155.34 103.845C155.549 103.493 155.843 103.214 156.212 103.015C156.586 102.816 157.009 102.716 157.485 102.716C157.935 102.716 158.327 102.808 158.667 102.992C159.006 103.175 159.257 103.436 159.429 103.78L158.609 104.258C158.48 104.048 158.316 103.891 158.118 103.784C157.923 103.677 157.706 103.627 157.474 103.627C157.077 103.627 156.746 103.757 156.487 104.017C156.224 104.278 156.094 104.622 156.094 105.058C156.094 105.495 156.224 105.839 156.483 106.099C156.742 106.359 157.074 106.49 157.478 106.49C157.71 106.49 157.923 106.436 158.122 106.333C158.316 106.225 158.48 106.069 158.613 105.858L159.433 106.336C159.257 106.677 158.998 106.941 158.663 107.129C158.327 107.316 157.935 107.408 157.489 107.408C157.016 107.408 156.593 107.309 156.22 107.11L156.216 107.098Z" fill="white"/>
<path d="M164.543 105.395H160.972C161.033 105.732 161.197 106 161.464 106.195C161.727 106.39 162.055 106.49 162.447 106.49C162.946 106.49 163.358 106.325 163.682 105.992L164.253 106.65C164.048 106.895 163.789 107.083 163.476 107.205C163.164 107.331 162.813 107.393 162.42 107.393C161.921 107.393 161.479 107.293 161.098 107.094C160.717 106.895 160.423 106.616 160.214 106.26C160.004 105.904 159.901 105.498 159.901 105.047C159.901 104.595 160 104.201 160.202 103.845C160.404 103.489 160.683 103.21 161.041 103.011C161.399 102.812 161.803 102.712 162.253 102.712C162.702 102.712 163.091 102.812 163.442 103.007C163.792 103.202 164.063 103.482 164.261 103.837C164.455 104.193 164.555 104.607 164.555 105.074C164.555 105.146 164.551 105.253 164.539 105.391L164.543 105.395ZM161.395 103.876C161.159 104.079 161.014 104.346 160.965 104.683H163.548C163.503 104.354 163.362 104.082 163.129 103.88C162.897 103.673 162.607 103.573 162.26 103.573C161.914 103.573 161.632 103.673 161.395 103.876Z" fill="white"/>
<path d="M175.039 102.766L173.358 107.335H172.337L171.159 104.186L169.966 107.335H168.945L167.276 102.766H168.282L169.482 106.137L170.736 102.766H171.632L172.859 106.157L174.093 102.766H175.039Z" fill="white"/>
<path d="M175.82 101.828C175.69 101.706 175.625 101.553 175.625 101.369C175.625 101.185 175.69 101.032 175.82 100.91C175.949 100.787 176.113 100.726 176.308 100.726C176.502 100.726 176.662 100.784 176.792 100.902C176.921 101.021 176.986 101.166 176.986 101.342C176.986 101.53 176.921 101.691 176.795 101.817C176.67 101.943 176.506 102.008 176.304 102.008C176.102 102.008 175.949 101.947 175.816 101.825L175.82 101.828ZM175.77 102.766H176.837V107.335H175.77V102.766Z" fill="white"/>
<path d="M180.968 107.09C180.843 107.194 180.69 107.27 180.511 107.32C180.332 107.37 180.145 107.397 179.943 107.397C179.444 107.397 179.055 107.266 178.785 107.002C178.514 106.738 178.377 106.359 178.377 105.854V103.654H177.626V102.797H178.377V101.752H179.444V102.797H180.664V103.654H179.444V105.827C179.444 106.049 179.497 106.222 179.604 106.336C179.711 106.451 179.867 106.513 180.073 106.513C180.313 106.513 180.511 106.451 180.671 106.325L180.968 107.087V107.09Z" fill="white"/>
<path d="M185.812 103.221C186.159 103.558 186.33 104.056 186.33 104.718V107.335H185.263V104.852C185.263 104.454 185.168 104.151 184.981 103.948C184.795 103.746 184.528 103.646 184.181 103.646C183.789 103.646 183.48 103.765 183.251 104.002C183.023 104.239 182.912 104.58 182.912 105.024V107.335H181.845V100.983H182.912V103.294C183.087 103.107 183.305 102.961 183.564 102.862C183.823 102.762 184.109 102.712 184.429 102.712C185.004 102.712 185.462 102.881 185.808 103.218L185.812 103.221Z" fill="white"/>
<path d="M194.444 107.335H193.43V106.754C193.259 106.96 193.045 107.117 192.79 107.228C192.535 107.339 192.26 107.397 191.963 107.397C191.353 107.397 190.877 107.228 190.526 106.888C190.176 106.547 190 106.046 190 105.376V102.766H191.068V105.23C191.068 105.64 191.159 105.95 191.346 106.149C191.529 106.352 191.792 106.451 192.135 106.451C192.516 106.451 192.817 106.333 193.042 106.095C193.266 105.858 193.377 105.518 193.377 105.074V102.762H194.444V107.335Z" fill="white"/>
<path d="M196.167 107.251C195.816 107.155 195.534 107.033 195.324 106.884L195.732 106.072C195.938 106.21 196.182 106.321 196.468 106.402C196.754 106.486 197.039 106.524 197.318 106.524C197.954 106.524 198.27 106.356 198.27 106.019C198.27 105.858 198.19 105.747 198.026 105.686C197.866 105.625 197.603 105.563 197.245 105.506C196.872 105.449 196.563 105.384 196.331 105.311C196.094 105.238 195.888 105.108 195.717 104.921C195.542 104.737 195.458 104.477 195.458 104.147C195.458 103.715 195.637 103.367 195.999 103.107C196.361 102.846 196.845 102.716 197.459 102.716C197.771 102.716 198.084 102.751 198.396 102.823C198.709 102.896 198.964 102.992 199.162 103.11L198.754 103.922C198.369 103.692 197.931 103.581 197.451 103.581C197.138 103.581 196.902 103.627 196.738 103.723C196.574 103.818 196.494 103.941 196.494 104.094C196.494 104.266 196.582 104.385 196.754 104.457C196.929 104.53 197.196 104.595 197.558 104.66C197.92 104.718 198.221 104.783 198.453 104.855C198.686 104.928 198.888 105.054 199.055 105.23C199.223 105.407 199.307 105.659 199.307 105.984C199.307 106.413 199.124 106.754 198.754 107.01C198.385 107.266 197.882 107.397 197.245 107.397C196.875 107.397 196.513 107.347 196.163 107.251H196.167Z" fill="white"/>
<path d="M200.233 107.205C200.103 107.075 200.039 106.918 200.039 106.731C200.039 106.543 200.103 106.386 200.233 106.26C200.363 106.134 200.53 106.072 200.728 106.072C200.927 106.072 201.083 106.137 201.209 106.26C201.338 106.386 201.399 106.543 201.399 106.731C201.399 106.918 201.334 107.079 201.209 107.205C201.083 107.335 200.919 107.397 200.728 107.397C200.538 107.397 200.366 107.331 200.233 107.205ZM200.096 101.346H201.357L201.144 105.353H200.302L200.096 101.346Z" fill="white"/>
<path d="M87.0315 82.5866V83.7768C87.0315 84.1748 86.9972 84.5613 86.9324 84.944C86.8676 85.3267 86.7609 85.6903 86.6161 86.0347C86.4713 86.3791 86.2426 86.7082 85.9339 87.0144C86.4027 87.4392 86.719 87.9405 86.8905 88.5145C87.0581 89.0886 87.142 89.6817 87.142 90.2979C87.142 90.9752 87.1306 91.6679 87.1077 92.3797C87.0848 93.0915 86.9667 93.7421 86.7571 94.3314C86.5437 94.9208 86.1969 95.403 85.7129 95.7857C85.2289 96.1684 84.5353 96.3597 83.6283 96.3597H73.754C73.5482 96.3597 73.3348 96.3176 73.1061 96.2372C72.8775 96.1569 72.6755 96.0421 72.4926 95.8967C72.3096 95.7512 72.1572 95.579 72.0314 95.38C71.9057 95.181 71.8447 94.9667 71.8447 94.7294V79.7011C71.8447 79.2458 72.0162 78.8822 72.3592 78.6105C72.7022 78.3388 73.1099 78.2048 73.5787 78.2048H83.3005C84.017 78.2048 84.6153 78.312 85.0879 78.5225C85.5642 78.7368 85.9453 79.0314 86.2312 79.4141C86.517 79.7968 86.7228 80.2561 86.8447 80.7918C86.9705 81.3276 87.0315 81.9284 87.0315 82.5866ZM75.0916 93.0992H82.7289C83.2129 93.0992 83.5292 92.992 83.6854 92.7815C83.8379 92.5672 83.9141 92.2266 83.9141 91.7559V90.2558C83.9141 89.7277 83.8036 89.3603 83.5863 89.1536C83.3653 88.947 82.9994 88.8437 82.4888 88.8437H78.2319C78.0261 88.8437 77.8546 88.7748 77.7174 88.6332C77.5764 88.4954 77.5078 88.3232 77.5078 88.1165V86.3102C77.5078 86.1036 77.5764 85.9314 77.7174 85.7936C77.8546 85.6558 78.0261 85.5831 78.2319 85.5831H82.4888C82.9728 85.5831 83.3272 85.4989 83.552 85.3305C83.7769 85.1622 83.8912 84.8216 83.8912 84.3049V82.7856C83.8912 82.3609 83.815 82.0317 83.6626 81.806C83.5101 81.5802 83.1976 81.4654 82.7289 81.4654H75.0916V93.103V93.0992Z" fill="white"/>
<path d="M116.814 78.201C117.035 78.201 117.192 78.2737 117.287 78.423C117.382 78.5722 117.428 78.7444 117.428 78.9511V89.4636C117.428 90.4777 117.363 91.4077 117.23 92.2534C117.096 93.0992 116.837 93.8263 116.452 94.4348C116.064 95.0433 115.515 95.5178 114.806 95.8546C114.097 96.1913 113.163 96.3597 112.009 96.3597H107.07C105.915 96.3597 104.981 96.1913 104.272 95.8546C103.564 95.5178 103.015 95.0433 102.626 94.4348C102.237 93.8263 101.978 93.0992 101.849 92.2534C101.715 91.4077 101.65 90.4777 101.65 89.4636V78.9511C101.65 78.7444 101.696 78.5684 101.791 78.423C101.887 78.2775 102.051 78.201 102.283 78.201H104.28C104.501 78.201 104.657 78.2737 104.753 78.423C104.848 78.5722 104.894 78.7444 104.894 78.9511V89.8157C104.894 90.2711 104.909 90.6959 104.935 91.0939C104.966 91.4919 105.054 91.8401 105.198 92.1424C105.343 92.4448 105.572 92.6782 105.881 92.8466C106.189 93.015 106.62 93.0992 107.176 93.0992H111.917C112.474 93.0992 112.904 93.015 113.213 92.8466C113.522 92.6782 113.743 92.4486 113.884 92.1539C114.021 91.8593 114.105 91.511 114.135 91.1054C114.166 90.6997 114.181 90.2711 114.181 89.8157V78.9511C114.181 78.7444 114.227 78.5684 114.322 78.423C114.417 78.2775 114.573 78.201 114.794 78.201H116.814Z" fill="white"/>
<path d="M141.525 78.201C142.71 78.201 143.686 78.3885 144.455 78.7636C145.225 79.1386 145.827 79.6552 146.266 80.3173C146.704 80.9793 147.009 81.7562 147.176 82.6517C147.344 83.5472 147.428 84.5192 147.428 85.5602V88.9967C147.428 90.053 147.344 91.0326 147.176 91.9281C147.009 92.8236 146.704 93.6005 146.266 94.2549C145.827 94.9093 145.221 95.4221 144.455 95.7971C143.686 96.1722 142.71 96.3597 141.525 96.3597H134.04C133.834 96.3597 133.621 96.3176 133.392 96.2372C133.163 96.1569 132.961 96.0421 132.779 95.8967C132.596 95.7512 132.443 95.579 132.317 95.38C132.192 95.181 132.131 94.9667 132.131 94.7294V79.7011C132.131 79.2458 132.302 78.8822 132.645 78.6105C132.988 78.3388 133.396 78.2048 133.865 78.2048H141.525V78.201ZM141.46 93.0992C142.089 93.0992 142.58 93.0035 142.942 92.8122C143.301 92.6208 143.571 92.3529 143.754 92.0085C143.937 91.6641 144.055 91.2623 144.105 90.8069C144.154 90.3514 144.181 89.8578 144.181 89.3297V85.231C144.181 84.7029 144.154 84.2093 144.105 83.7539C144.051 83.2984 143.937 82.9005 143.754 82.5637C143.571 82.2269 143.301 81.959 142.942 81.76C142.584 81.561 142.089 81.4615 141.46 81.4615H135.381V93.0992H141.46Z" fill="white"/>
<path d="M171.525 78.201C172.71 78.201 173.686 78.3885 174.455 78.7636C175.225 79.1386 175.827 79.6552 176.266 80.3173C176.704 80.9793 177.009 81.7562 177.177 82.6517C177.344 83.5472 177.428 84.5192 177.428 85.5602V88.9967C177.428 90.053 177.344 91.0326 177.177 91.9281C177.009 92.8236 176.704 93.6005 176.266 94.2549C175.827 94.9093 175.221 95.4221 174.455 95.7971C173.686 96.1722 172.71 96.3597 171.525 96.3597H164.04C163.834 96.3597 163.621 96.3176 163.392 96.2372C163.164 96.1569 162.962 96.0421 162.779 95.8967C162.596 95.7512 162.443 95.579 162.317 95.38C162.192 95.181 162.131 94.9667 162.131 94.7294V79.7011C162.131 79.2458 162.302 78.8822 162.645 78.6105C162.988 78.3388 163.396 78.2048 163.865 78.2048H171.525V78.201ZM171.46 93.0992C172.089 93.0992 172.58 93.0035 172.943 92.8122C173.301 92.6208 173.571 92.3529 173.754 92.0085C173.937 91.6641 174.055 91.2623 174.105 90.8069C174.154 90.3514 174.181 89.8578 174.181 89.3297V85.231C174.181 84.7029 174.154 84.2093 174.105 83.7539C174.051 83.2984 173.937 82.9005 173.754 82.5637C173.571 82.2269 173.301 81.959 172.943 81.76C172.584 81.561 172.089 81.4615 171.46 81.4615H165.382V93.0992H171.46Z" fill="white"/>
<path d="M207.539 78.201C207.668 78.201 207.79 78.2469 207.901 78.3426C208.011 78.4383 208.03 78.5454 207.954 78.6602L201.216 90.7801V95.6058C201.216 95.8125 201.17 95.9885 201.075 96.1339C200.98 96.2793 200.824 96.3559 200.603 96.3559H198.583C198.362 96.3559 198.206 96.2832 198.11 96.1339C198.015 95.9885 197.969 95.8125 197.969 95.6058V90.7801L191.296 78.6602C191.224 78.5416 191.239 78.4383 191.338 78.3426C191.441 78.2469 191.567 78.201 191.712 78.201H194.212C194.505 78.201 194.718 78.3388 194.848 78.6181L199.631 87.4315L204.459 78.5952C204.604 78.3311 204.818 78.1972 205.096 78.1972H207.531L207.539 78.201Z" fill="white"/>
<path d="M93.1977 57.7958C93.3501 58.0255 93.6207 58.4694 94.0018 59.1238C94.3829 59.7782 94.8326 60.5359 95.347 61.397C95.8577 62.2542 96.3836 63.1535 96.9362 64.0911C97.485 65.0287 97.9995 65.9127 98.4721 66.747C98.9408 67.5813 99.3257 68.2854 99.6154 68.8633C99.9088 69.4411 100.057 69.8047 100.057 69.9578C100.057 70.241 99.9926 70.4859 99.8631 70.6887C99.7373 70.8954 99.5086 70.9987 99.1771 70.9987H94.9583C94.6535 70.9987 94.4095 70.9413 94.2304 70.8265C94.0513 70.7117 93.8913 70.5127 93.7312 70.2295L86.7952 57.9107H78.7083V69.6516C78.7083 70.0114 78.6283 70.3252 78.4606 70.5931C78.2967 70.8609 78.0185 70.9987 77.6374 70.9987H74.1504C73.7654 70.9987 73.4834 70.8648 73.3081 70.5931C73.129 70.3213 73.0414 70.0114 73.0414 69.6516V53.525C73.0414 53.1653 73.1252 52.8591 73.2891 52.5989C73.4529 52.3425 73.7426 52.2124 74.1504 52.2124H90.8234C91.4103 52.2124 91.8752 52.1167 92.222 51.9254C92.5688 51.734 92.828 51.47 93.0071 51.137C93.1862 50.8041 93.3082 50.4176 93.373 49.9813C93.4339 49.545 93.4682 49.082 93.4682 48.5959C93.4682 48.1099 93.4339 47.6469 93.373 47.2068C93.3082 46.7705 93.1862 46.3878 93.0071 46.051C92.828 45.7181 92.5688 45.454 92.222 45.2627C91.8752 45.0675 91.4065 44.9757 90.8234 44.9757H74.1504C73.7388 44.9757 73.4529 44.8494 73.2891 44.5892C73.1214 44.3328 73.0414 44.0228 73.0414 43.6669V40.6245C73.0414 40.2648 73.1252 39.9509 73.2891 39.6831C73.4529 39.4114 73.7426 39.2774 74.1504 39.2774H91.8219C93.2777 39.2774 94.4781 39.5223 95.4271 40.0122C96.3684 40.4982 97.1153 41.1641 97.6679 42.0137C98.2167 42.8594 98.6093 43.8467 98.8379 44.9795C99.0666 46.1085 99.1847 47.3139 99.1847 48.5998C99.1847 49.6751 99.0971 50.7352 98.937 51.7723C98.7693 52.8132 98.4644 53.7508 98.0147 54.5851C97.565 55.4193 96.9629 56.1235 96.1931 56.7014C95.4309 57.2792 94.4324 57.6428 93.2053 57.7997L93.1977 57.7958Z" fill="white"/>
<path d="M115.393 38.8565C116.086 38.8565 116.677 38.9598 117.176 39.1627C117.676 39.3693 118.106 39.6448 118.48 39.9893C118.849 40.3375 119.17 40.7547 119.44 41.2407C119.707 41.7267 119.958 42.2663 120.187 42.8556L130.961 69.5331C131.064 69.7895 131.113 70.0076 131.113 70.1875C131.113 70.4439 131.029 70.6467 130.865 70.8036C130.702 70.9567 130.488 71.0332 130.233 71.0332H126.132C125.595 71.0332 125.225 70.7538 125.019 70.1875L115.477 46.2845H115.32L110.339 58.8713H115.092C115.602 58.8713 115.972 59.1277 116.205 59.6443C116.281 59.8242 116.399 60.0997 116.567 60.4709C116.73 60.8421 116.898 61.221 117.066 61.6075C117.23 61.9902 117.371 62.3576 117.485 62.702C117.603 63.0503 117.657 63.3143 117.657 63.4904C117.657 63.8501 117.542 64.1448 117.314 64.3744C117.085 64.604 116.788 64.7226 116.429 64.7226H108.034L105.85 70.2257C105.644 70.7653 105.286 71.0332 104.775 71.0332H100.56C99.9736 71.0332 99.6801 70.7538 99.6801 70.1875C99.6801 69.9311 99.7182 69.7129 99.7944 69.5331L110.488 42.8556C110.949 41.6999 111.548 40.7432 112.291 39.9893C113.03 39.2315 114.067 38.8565 115.397 38.8565H115.393Z" fill="white"/>
<path d="M154.837 38.8565C155.065 38.8565 155.29 38.9369 155.507 39.1053C155.724 39.2698 155.793 39.4573 155.717 39.664L144.909 66.992C144.676 67.5584 144.413 68.0826 144.124 68.5725C143.83 69.0623 143.491 69.491 143.11 69.8622C142.725 70.2334 142.279 70.5204 141.765 70.7271C141.254 70.9299 140.667 71.0332 140.004 71.0332C138.929 71.0332 138.003 70.7003 137.226 70.0305C136.445 69.3647 135.85 68.5419 135.442 67.566L124.288 39.6602C124.185 39.4305 124.238 39.2354 124.44 39.0823C124.646 38.9292 124.875 38.8527 125.13 38.8527H129.269C129.6 38.8527 129.833 38.9177 129.958 39.044C130.084 39.1703 130.214 39.377 130.343 39.6602L139.924 63.5631V63.6013L140.08 63.5631L149.509 39.6602C149.612 39.4305 149.756 39.2354 149.951 39.0823C150.145 38.9292 150.366 38.8527 150.622 38.8527H154.837V38.8565Z" fill="white"/>
<path d="M181.818 39.2774C181.971 39.2774 182.188 39.3578 182.47 39.5108C182.748 39.6639 182.889 40.039 182.889 40.6283V43.6286C182.889 44.2218 182.748 44.593 182.47 44.7461C182.188 44.903 181.971 44.9795 181.818 44.9795H159.779C159.623 44.9795 159.414 44.9068 159.147 44.769C158.88 44.6274 158.743 44.2639 158.743 43.6745V40.6704C158.743 40.0543 158.876 39.6678 159.147 39.5147C159.417 39.3616 159.627 39.2812 159.779 39.2812H181.818V39.2774ZM164.494 61.7988C164.494 63.1076 164.833 64.0184 165.507 64.5312C166.186 65.044 167.112 65.3043 168.285 65.3043H181.78C182.188 65.3043 182.474 65.4305 182.641 65.6869C182.809 65.9434 182.889 66.2533 182.889 66.6131V69.6937C182.889 70.0535 182.809 70.3596 182.641 70.616C182.478 70.8724 182.188 71.0025 181.78 71.0025H168.171C166.33 71.0025 164.806 70.7385 163.59 70.2142C162.375 69.6899 161.41 68.9398 160.698 67.964C159.981 66.9919 159.475 65.8132 159.185 64.4432C158.895 63.0732 158.743 61.5386 158.743 59.8433V54.7649C158.743 54.455 158.792 54.1411 158.895 53.8235C158.998 53.502 159.17 53.2189 159.414 52.9739C159.657 52.7328 159.978 52.53 160.374 52.3769C160.77 52.22 161.262 52.1435 161.849 52.1435H181.628C182.013 52.1435 182.287 52.2736 182.451 52.53C182.615 52.7864 182.699 53.0964 182.699 53.4523V56.4947C182.699 56.8544 182.615 57.1682 182.451 57.4361C182.287 57.7078 182.009 57.8418 181.628 57.8418H164.494V61.8065V61.7988Z" fill="white"/>
<path d="M189.448 39.2774C189.833 39.2774 190.107 39.4114 190.271 39.6831C190.435 39.9509 190.519 40.2648 190.519 40.6245V59.5601C190.519 60.3828 190.576 61.1406 190.69 61.8332C190.805 62.5259 191.014 63.1306 191.323 63.6434C191.628 64.1562 192.039 64.5542 192.55 64.8374C193.061 65.1206 193.697 65.2622 194.467 65.2622H206.925C207.31 65.2622 207.581 65.3961 207.748 65.6678C207.912 65.9357 207.996 66.2495 207.996 66.6092V69.6516C207.996 70.0114 207.912 70.3252 207.748 70.5931C207.581 70.8609 207.306 70.9987 206.925 70.9987H194.276C192.283 70.9987 190.667 70.6964 189.429 70.0956C188.19 69.4909 187.23 68.6528 186.552 67.5736C185.873 66.4983 185.416 65.2201 185.172 63.7467C184.928 62.2695 184.81 60.6584 184.81 58.9133V40.6321C184.81 40.2724 184.89 39.9586 185.058 39.6907C185.221 39.419 185.511 39.2851 185.919 39.2851H189.444L189.448 39.2774Z" fill="white"/>
</svg>
