<svg width="24" height="24" viewBox="0 0 24 24" fill="none" xmlns="http://www.w3.org/2000/svg">
<path d="M20.0625 9.00003C20.0635 7.63754 19.7192 6.29703 19.0617 5.10367C18.4043 3.9103 17.4551 2.90301 16.3029 2.17586C15.1507 1.44871 13.833 1.02542 12.4728 0.945519C11.1127 0.865615 9.75449 1.1317 8.52505 1.71894C7.29561 2.30617 6.23504 3.19539 5.44238 4.30357C4.64972 5.41174 4.15082 6.70272 3.99227 8.05595C3.83373 9.40918 4.02071 10.7805 4.53575 12.0419C5.05079 13.3033 5.87709 14.4136 6.9375 15.2691V22.5C6.93761 22.5959 6.96221 22.6901 7.00897 22.7738C7.05573 22.8575 7.1231 22.9278 7.20469 22.9782C7.29325 23.0335 7.39559 23.0627 7.5 23.0625C7.5872 23.0626 7.67321 23.0424 7.75125 23.0035L12 20.8791L16.2497 23.0035C16.3354 23.0461 16.4306 23.0661 16.5262 23.0616C16.6219 23.0571 16.7148 23.0283 16.7962 22.9779C16.8776 22.9275 16.9448 22.8572 16.9914 22.7735C17.038 22.6899 17.0624 22.5958 17.0625 22.5V15.2691C17.9991 14.5146 18.7547 13.5598 19.2739 12.475C19.793 11.3901 20.0625 10.2027 20.0625 9.00003ZM5.0625 9.00003C5.0625 7.62792 5.46938 6.28663 6.23168 5.14576C6.99398 4.00489 8.07747 3.1157 9.34513 2.59061C10.6128 2.06553 12.0077 1.92815 13.3534 2.19583C14.6992 2.46352 15.9353 3.12425 16.9056 4.09448C17.8758 5.0647 18.5365 6.30085 18.8042 7.64659C19.0719 8.99233 18.9345 10.3872 18.4094 11.6549C17.8843 12.9226 16.9951 14.006 15.8543 14.7683C14.7134 15.5307 13.3721 15.9375 12 15.9375C10.1607 15.9353 8.39746 15.2037 7.09691 13.9031C5.79636 12.6026 5.06473 10.8393 5.0625 9.00003ZM15.9375 21.5897L12.2503 19.7466C12.1723 19.7076 12.0863 19.6874 11.9991 19.6874C11.9119 19.6874 11.8258 19.7076 11.7478 19.7466L8.0625 21.5897V16.0313C9.26489 16.7068 10.6209 17.0616 12 17.0616C13.3791 17.0616 14.7351 16.7068 15.9375 16.0313V21.5897ZM12 14.0625C13.0013 14.0625 13.9801 13.7656 14.8126 13.2093C15.6451 12.6531 16.294 11.8624 16.6771 10.9374C17.0603 10.0123 17.1606 8.99441 16.9652 8.01238C16.7699 7.03035 16.2877 6.1283 15.5797 5.4203C14.8717 4.7123 13.9697 4.23014 12.9876 4.0348C12.0056 3.83946 10.9877 3.93972 10.0627 4.32289C9.13761 4.70606 8.34696 5.35493 7.79068 6.18745C7.23441 7.01998 6.9375 7.99876 6.9375 9.00003C6.93899 10.3422 7.47284 11.629 8.42192 12.5781C9.371 13.5272 10.6578 14.061 12 14.0625ZM12 5.06253C12.7788 5.06253 13.54 5.29346 14.1876 5.72612C14.8351 6.15877 15.3398 6.77373 15.6378 7.49321C15.9358 8.2127 16.0138 9.0044 15.8618 9.7682C15.7099 10.532 15.3349 11.2336 14.7842 11.7843C14.2336 12.3349 13.532 12.7099 12.7682 12.8619C12.0044 13.0138 11.2127 12.9358 10.4932 12.6378C9.7737 12.3398 9.15875 11.8351 8.72609 11.1876C8.29343 10.5401 8.0625 9.77879 8.0625 9.00003C8.0625 7.95574 8.47734 6.95422 9.21577 6.2158C9.95419 5.47737 10.9557 5.06253 12 5.06253Z" fill="#515151"/>
</svg>
