<svg width="23" height="20" viewBox="0 0 23 20" fill="none" xmlns="http://www.w3.org/2000/svg">
<path d="M22.1981 4.40969C22.1456 4.3406 22.0779 4.28459 22.0001 4.24604C21.9224 4.2075 21.8368 4.18746 21.75 4.1875H5.21906L4.29187 0.849062C4.2589 0.730692 4.18808 0.626375 4.09023 0.552054C3.99237 0.477734 3.87288 0.437499 3.75 0.4375H1.5C1.35082 0.4375 1.20774 0.496763 1.10225 0.602252C0.996763 0.707742 0.9375 0.850816 0.9375 1C0.9375 1.14918 0.996763 1.29226 1.10225 1.39775C1.20774 1.50324 1.35082 1.5625 1.5 1.5625H3.3225L6.65625 13.5522C6.77788 13.9853 7.0373 14.367 7.39523 14.6395C7.75317 14.912 8.19014 15.0605 8.64 15.0625H17.9062C18.3568 15.0613 18.7946 14.9132 19.1533 14.6406C19.512 14.3681 19.7719 13.9859 19.8937 13.5522L22.2966 4.90094C22.3192 4.81702 22.3221 4.72898 22.3051 4.64375C22.288 4.55851 22.2514 4.4784 22.1981 4.40969ZM18.8044 13.2512C18.7497 13.4478 18.6324 13.6211 18.4704 13.7449C18.3083 13.8688 18.1102 13.9364 17.9062 13.9375H8.64C8.43522 13.9374 8.2361 13.8703 8.07307 13.7464C7.91004 13.6224 7.79207 13.4485 7.73719 13.2512L5.53125 5.3125H21.0103L18.8044 13.2512ZM9.5625 18.25C9.5625 18.5096 9.48552 18.7633 9.3413 18.9792C9.19708 19.195 8.9921 19.3633 8.75227 19.4626C8.51244 19.5619 8.24854 19.5879 7.99394 19.5373C7.73934 19.4866 7.50548 19.3616 7.32192 19.1781C7.13837 18.9945 7.01336 18.7607 6.96272 18.5061C6.91208 18.2515 6.93807 17.9876 7.03741 17.7477C7.13675 17.5079 7.30497 17.3029 7.52081 17.1587C7.73665 17.0145 7.99041 16.9375 8.25 16.9375C8.5981 16.9375 8.93194 17.0758 9.17808 17.3219C9.42422 17.5681 9.5625 17.9019 9.5625 18.25ZM19.3125 18.25C19.3125 18.5096 19.2355 18.7633 19.0913 18.9792C18.9471 19.195 18.7421 19.3633 18.5023 19.4626C18.2624 19.5619 17.9985 19.5879 17.7439 19.5373C17.4893 19.4866 17.2555 19.3616 17.0719 19.1781C16.8884 18.9945 16.7634 18.7607 16.7127 18.5061C16.6621 18.2515 16.6881 17.9876 16.7874 17.7477C16.8867 17.5079 17.055 17.3029 17.2708 17.1587C17.4867 17.0145 17.7404 16.9375 18 16.9375C18.3481 16.9375 18.6819 17.0758 18.9281 17.3219C19.1742 17.5681 19.3125 17.9019 19.3125 18.25Z" fill="#101010"/>
</svg>
