<svg width="208" height="32" viewBox="0 0 208 32" fill="none" xmlns="http://www.w3.org/2000/svg">
<path d="M29.2862 14.3563L23.6612 19.21L25.375 26.4688C25.4695 26.8628 25.4452 27.2761 25.305 27.6563C25.1648 28.0365 24.9151 28.3666 24.5874 28.605C24.2597 28.8433 23.8687 28.9792 23.4638 28.9955C23.0589 29.0117 22.6582 28.9076 22.3125 28.6963L16 24.8113L9.68373 28.6963C9.33802 28.9064 8.93786 29.0095 8.53366 28.9927C8.12945 28.9758 7.73927 28.8398 7.41224 28.6016C7.08521 28.3634 6.83595 28.0339 6.69586 27.6543C6.55577 27.2748 6.53111 26.8623 6.62498 26.4688L8.34498 19.21L2.71998 14.3563C2.41411 14.0919 2.19289 13.7433 2.08396 13.354C1.97503 12.9646 1.98322 12.5518 2.1075 12.1671C2.23178 11.7824 2.46665 11.4428 2.78277 11.1908C3.09889 10.9388 3.48225 10.7855 3.88498 10.75L11.26 10.155L14.105 3.27004C14.259 2.89481 14.5211 2.57385 14.8579 2.34796C15.1948 2.12208 15.5913 2.00146 15.9969 2.00146C16.4025 2.00146 16.7989 2.12208 17.1358 2.34796C17.4726 2.57385 17.7347 2.89481 17.8887 3.27004L20.7325 10.155L28.1075 10.75C28.511 10.7842 28.8955 10.9366 29.2128 11.1883C29.53 11.44 29.766 11.7797 29.891 12.1649C30.0161 12.55 30.0247 12.9636 29.9158 13.3536C29.8069 13.7436 29.5853 14.0929 29.2787 14.3575L29.2862 14.3563Z" fill="#FFF263"/>
<path d="M73.2862 14.3563L67.6612 19.21L69.375 26.4688C69.4695 26.8628 69.4452 27.2761 69.305 27.6563C69.1648 28.0365 68.9151 28.3666 68.5874 28.605C68.2597 28.8433 67.8687 28.9792 67.4638 28.9955C67.0589 29.0117 66.6582 28.9076 66.3125 28.6963L60 24.8113L53.6837 28.6963C53.338 28.9064 52.9379 29.0095 52.5337 28.9927C52.1295 28.9758 51.7393 28.8398 51.4122 28.6016C51.0852 28.3634 50.836 28.0339 50.6959 27.6543C50.5558 27.2748 50.5311 26.8623 50.625 26.4688L52.345 19.21L46.72 14.3563C46.4141 14.0919 46.1929 13.7433 46.084 13.354C45.975 12.9646 45.9832 12.5518 46.1075 12.1671C46.2318 11.7824 46.4666 11.4428 46.7828 11.1908C47.0989 10.9388 47.4823 10.7855 47.885 10.75L55.26 10.155L58.105 3.27004C58.259 2.89481 58.5211 2.57385 58.8579 2.34796C59.1948 2.12208 59.5913 2.00146 59.9969 2.00146C60.4025 2.00146 60.7989 2.12208 61.1358 2.34796C61.4726 2.57385 61.7347 2.89481 61.8887 3.27004L64.7325 10.155L72.1075 10.75C72.511 10.7842 72.8955 10.9366 73.2128 11.1883C73.53 11.44 73.766 11.7797 73.891 12.1649C74.0161 12.55 74.0247 12.9636 73.9158 13.3536C73.8069 13.7436 73.5853 14.0929 73.2787 14.3575L73.2862 14.3563Z" fill="#FFF263"/>
<path d="M117.286 14.3563L111.661 19.21L113.375 26.4688C113.47 26.8628 113.445 27.2761 113.305 27.6563C113.165 28.0365 112.915 28.3666 112.587 28.605C112.26 28.8433 111.869 28.9792 111.464 28.9955C111.059 29.0117 110.658 28.9076 110.312 28.6963L104 24.8113L97.6837 28.6963C97.338 28.9064 96.9379 29.0095 96.5337 28.9927C96.1295 28.9758 95.7393 28.8398 95.4122 28.6016C95.0852 28.3634 94.836 28.0339 94.6959 27.6543C94.5558 27.2748 94.5311 26.8623 94.625 26.4688L96.345 19.21L90.72 14.3563C90.4141 14.0919 90.1929 13.7433 90.084 13.354C89.975 12.9646 89.9832 12.5518 90.1075 12.1671C90.2318 11.7824 90.4666 11.4428 90.7828 11.1908C91.0989 10.9388 91.4823 10.7855 91.885 10.75L99.26 10.155L102.105 3.27004C102.259 2.89481 102.521 2.57385 102.858 2.34796C103.195 2.12208 103.591 2.00146 103.997 2.00146C104.402 2.00146 104.799 2.12208 105.136 2.34796C105.473 2.57385 105.735 2.89481 105.889 3.27004L108.732 10.155L116.107 10.75C116.511 10.7842 116.895 10.9366 117.213 11.1883C117.53 11.44 117.766 11.7797 117.891 12.1649C118.016 12.55 118.025 12.9636 117.916 13.3536C117.807 13.7436 117.585 14.0929 117.279 14.3575L117.286 14.3563Z" fill="#FFF263"/>
<path d="M161.286 14.3563L155.661 19.21L157.375 26.4688C157.47 26.8628 157.445 27.2761 157.305 27.6563C157.165 28.0365 156.915 28.3666 156.587 28.605C156.26 28.8433 155.869 28.9792 155.464 28.9955C155.059 29.0117 154.658 28.9076 154.313 28.6963L148 24.8113L141.684 28.6963C141.338 28.9064 140.938 29.0095 140.534 28.9927C140.129 28.9758 139.739 28.8398 139.412 28.6016C139.085 28.3634 138.836 28.0339 138.696 27.6543C138.556 27.2748 138.531 26.8623 138.625 26.4688L140.345 19.21L134.72 14.3563C134.414 14.0919 134.193 13.7433 134.084 13.354C133.975 12.9646 133.983 12.5518 134.108 12.1671C134.232 11.7824 134.467 11.4428 134.783 11.1908C135.099 10.9388 135.482 10.7855 135.885 10.75L143.26 10.155L146.105 3.27004C146.259 2.89481 146.521 2.57385 146.858 2.34796C147.195 2.12208 147.591 2.00146 147.997 2.00146C148.402 2.00146 148.799 2.12208 149.136 2.34796C149.473 2.57385 149.735 2.89481 149.889 3.27004L152.733 10.155L160.108 10.75C160.511 10.7842 160.896 10.9366 161.213 11.1883C161.53 11.44 161.766 11.7797 161.891 12.1649C162.016 12.55 162.025 12.9636 161.916 13.3536C161.807 13.7436 161.585 14.0929 161.279 14.3575L161.286 14.3563Z" fill="#FFF263"/>
<path d="M205.286 14.3563L199.661 19.21L201.375 26.4688C201.47 26.8628 201.445 27.2761 201.305 27.6563C201.165 28.0365 200.915 28.3666 200.587 28.605C200.26 28.8433 199.869 28.9792 199.464 28.9955C199.059 29.0117 198.658 28.9076 198.313 28.6963L192 24.8113L185.684 28.6963C185.338 28.9064 184.938 29.0095 184.534 28.9927C184.129 28.9758 183.739 28.8398 183.412 28.6016C183.085 28.3634 182.836 28.0339 182.696 27.6543C182.556 27.2748 182.531 26.8623 182.625 26.4688L184.345 19.21L178.72 14.3563C178.414 14.0919 178.193 13.7433 178.084 13.354C177.975 12.9646 177.983 12.5518 178.108 12.1671C178.232 11.7824 178.467 11.4428 178.783 11.1908C179.099 10.9388 179.482 10.7855 179.885 10.75L187.26 10.155L190.105 3.27004C190.259 2.89481 190.521 2.57385 190.858 2.34796C191.195 2.12208 191.591 2.00146 191.997 2.00146C192.402 2.00146 192.799 2.12208 193.136 2.34796C193.473 2.57385 193.735 2.89481 193.889 3.27004L196.733 10.155L204.108 10.75C204.511 10.7842 204.896 10.9366 205.213 11.1883C205.53 11.44 205.766 11.7797 205.891 12.1649C206.016 12.55 206.025 12.9636 205.916 13.3536C205.807 13.7436 205.585 14.0929 205.279 14.3575L205.286 14.3563Z" fill="#FFF263"/>
</svg>
