<svg width="18" height="17" viewBox="0 0 18 17" fill="none" xmlns="http://www.w3.org/2000/svg">
<path d="M17.0414 16.1875C16.9865 16.2825 16.9076 16.3614 16.8125 16.4163C16.7175 16.4711 16.6097 16.5 16.5 16.5H1.49997C1.39031 16.4999 1.28262 16.4709 1.18769 16.416C1.09277 16.3611 1.01396 16.2822 0.959184 16.1872C0.904405 16.0922 0.875582 15.9845 0.87561 15.8748C0.875639 15.7652 0.904516 15.6575 0.959345 15.5625C2.14919 13.5055 3.98278 12.0305 6.12263 11.3312C5.06416 10.7011 4.2418 9.74099 3.78183 8.59827C3.32187 7.45554 3.24972 6.19343 3.57649 5.00574C3.90325 3.81805 4.61085 2.77045 5.59061 2.02384C6.57038 1.27722 7.76815 0.872864 8.99997 0.872864C10.2318 0.872864 11.4296 1.27722 12.4093 2.02384C13.3891 2.77045 14.0967 3.81805 14.4235 5.00574C14.7502 6.19343 14.6781 7.45554 14.2181 8.59827C13.7581 9.74099 12.9358 10.7011 11.8773 11.3312C14.0172 12.0305 15.8508 13.5055 17.0406 15.5625C17.0956 15.6574 17.1246 15.7652 17.1247 15.8749C17.1249 15.9846 17.0961 16.0924 17.0414 16.1875Z" fill="#101010"/>
</svg>
